<?xml version="1.0" encoding="UTF-8"?>
<svg id="Layer_2" data-name="Layer 2" xmlns="http://www.w3.org/2000/svg" viewBox="0 0 61.14 61.14">
  <defs>
    <style>
      .cls-1 {
        fill: #908dff;
      }
    </style>
  </defs>
  <g id="Layer_1-2" data-name="Layer 1">
    <g>
      <g id="Outlined_Mnemonics_Logos" data-name="Outlined Mnemonics Logos">
        <g id="Ae">
          <path class="cls-1" d="m25.33,37.76h-10.1l-2.05,6.39c-.06.24-.28.41-.52.39h-5.11c-.29,0-.39-.16-.31-.48l8.74-25.07c.09-.26.17-.52.26-.85.11-.58.17-1.18.17-1.77-.02-.15.08-.28.23-.31.03,0,.05,0,.08,0h6.95c.2,0,.32.07.35.22l9.92,27.83c.09.29,0,.44-.26.44h-5.68c-.2.02-.39-.11-.44-.31l-2.23-6.48Zm-5.07-16.71h-.04l-3.41,11.32h6.91l-3.45-11.32Z"/>
          <path class="cls-1" d="m48.91,35.27h-8.61c.11.85.39,1.67.83,2.41.49.73,1.18,1.3,1.99,1.64,1.1.47,2.28.71,3.47.68.95-.02,1.89-.12,2.82-.31.83-.11,1.64-.32,2.42-.63.15-.12.22-.04.22.22v4.15c0,.11-.02.23-.07.33-.05.08-.12.15-.2.2-.86.38-1.77.65-2.71.81-1.27.24-2.56.35-3.85.33-2.07,0-3.8-.32-5.2-.96-1.32-.58-2.49-1.47-3.41-2.58-.86-1.05-1.5-2.26-1.88-3.56-.38-1.28-.57-2.62-.57-3.96,0-1.46.22-2.92.68-4.31.44-1.36,1.13-2.62,2.03-3.72,2-2.42,4.75-3.43,7.82-3.43,2.65,0,5.37.88,7.08,2.99.72.92,1.26,1.97,1.62,3.08.34,1.07.52,2.19.52,3.32,0,.64-.02,1.22-.07,1.75-.04.52-.08.9-.11,1.14-.02.2-.19.35-.39.35-.17,0-.47.02-.9.07-.42.04-.95.07-1.57.09-.63.01-1.29-.09-1.99-.09h0Zm-8.61-3.98h5.73c.7,0,1.22,0,1.55-.02.22-.02.44-.09.63-.21v-.26c0-.34-.07-.68-.17-1.01-.48-1.53-1.93-2.55-3.54-2.49-1.5-.09-2.92.71-3.61,2.05-.3.61-.5,1.26-.59,1.94h0Z"/>
        </g>
      </g>
      <path class="cls-1" d="m61.14,61.14H0V0h61.14v61.14Zm-59.69-1.45h58.25V1.45H1.45v58.25Z"/>
    </g>
  </g>
</svg>