<?xml version="1.0" encoding="UTF-8"?>
<svg id="Layer_2" data-name="Layer 2" xmlns="http://www.w3.org/2000/svg" viewBox="0 0 39.95 40">
  <defs>
    <style>
      .cls-1 {
        fill: #e06a49;
      }
    </style>
  </defs>
  <g id="Layer_1-2" data-name="Layer 1">
    <g>
      <path class="cls-1" d="m28.31,39.98c.18,0,.35.02.53.02,1.93,0,3.53-.7,4.8-2.07l.03-.03c.45-.54.96-1.03,1.5-1.55.37-.35.75-.71,1.1-1.09,1.68-1.75,1.67-3.98-.02-5.67l-4.67-4.67c-.8-.84-1.76-1.28-2.78-1.28s-1.98.43-2.8,1.26l-2.76,2.76c-.25-.14-.5-.26-.75-.39-.31-.16-.6-.3-.85-.46-2.53-1.61-4.83-3.71-7.03-6.4-1.11-1.39-1.84-2.56-2.35-3.76.72-.66,1.39-1.34,2.04-2,.24-.24.48-.48.72-.73,1.75-1.75,1.75-3.93,0-5.67l-2.32-2.32c-.27-.27-.53-.54-.8-.8-.52-.52-1.05-1.07-1.58-1.57-.8-.8-1.75-1.22-2.76-1.22s-1.97.42-2.8,1.22l-2.91,2.9C.77,7.53.16,8.83.03,10.33c-.15,1.87.2,3.85,1.08,6.25,1.37,3.7,3.43,7.13,6.48,10.81,3.71,4.43,8.18,7.93,13.28,10.4,1.94.93,4.54,2.01,7.44,2.2Zm-19.16-13.88c-2.9-3.49-4.85-6.74-6.13-10.22-.8-2.14-1.09-3.81-.97-5.39.09-1.03.48-1.88,1.22-2.61l2.89-2.89c.44-.43.93-.65,1.4-.65s.93.22,1.37.66c.52.48,1.02.99,1.54,1.53.26.27.53.55.81.82l2.32,2.32c.95.95.95,1.89,0,2.84-.25.25-.49.49-.73.74-.72.73-1.39,1.42-2.14,2.08l-.04.04c-.66.66-.57,1.3-.4,1.78,0,.02.02.04.02.07.6,1.44,1.44,2.81,2.74,4.45,2.34,2.88,4.8,5.12,7.52,6.85.34.21.69.39,1.03.57.31.16.6.3.85.46.03.02.06.03.09.05.26.13.52.2.78.2.65,0,1.06-.41,1.19-.55l2.91-2.91c.44-.44.92-.67,1.39-.67.57,0,1.04.36,1.34.67l4.69,4.69c1.15,1.15.62,2.18-.02,2.86-.33.35-.67.68-1.03,1.03-.55.52-1.12,1.07-1.63,1.69-.89.95-1.94,1.39-3.3,1.39-.13,0-.27,0-.4-.02-2.55-.16-4.91-1.16-6.69-2-4.85-2.34-9.09-5.66-12.62-9.87Z"/>
      <path class="cls-1" d="m21.96,7.32c-.55-.09-1.07.28-1.16.82-.09.55.28,1.07.82,1.16,2.26.39,4.31,1.45,5.95,3.08,1.63,1.63,2.7,3.69,3.08,5.95.08.49.51.84.99.84.06,0,.11,0,.17-.02.55-.09.92-.62.82-1.16-.45-2.67-1.71-5.1-3.64-7.03-1.94-1.94-4.37-3.19-7.04-3.64Z"/>
      <path class="cls-1" d="m38.95,18.82c.06,0,.11,0,.17-.02.55-.09.92-.62.82-1.16-.75-4.41-2.83-8.42-6.02-11.61C30.72,2.84,26.71.76,22.3.01c-.55-.09-1.07.28-1.16.82-.09.55.28,1.07.82,1.16,3.99.68,7.63,2.57,10.53,5.46,2.89,2.89,4.78,6.54,5.46,10.53.08.49.51.84.99.84Z"/>
    </g>
  </g>
</svg>