<?xml version="1.0" encoding="UTF-8"?>
<svg id="Layer_2" data-name="Layer 2" xmlns="http://www.w3.org/2000/svg" viewBox="0 0 60.77 60.77">
  <defs>
    <style>
      .cls-1 {
        fill: #419bff;
      }
    </style>
  </defs>
  <g id="Layer_1-2" data-name="Layer 1">
    <g>
      <g>
        <path class="cls-1" d="m40.02,40.9c-1.99,0-4.54-.89-5.77-1.63l-1.19,4.8c1.63.89,4.14,1.5,6.96,1.5,6.16,0,9.34-2.95,9.34-6.97-.05-3.17-1.76-5.25-5.86-6.65-2.63-.93-3.46-1.46-3.46-2.47,0-1.1.92-1.76,2.55-1.76,1.85,0,3.69.71,4.67,1.24l1.19-4.63c-1.32-.66-3.57-1.23-6.09-1.23-5.33,0-8.77,3.04-8.77,7.05-.05,2.56,1.67,4.99,6.13,6.48,2.5.84,3.16,1.37,3.16,2.47,0,1.1-.84,1.81-2.86,1.81Z"/>
        <path class="cls-1" d="m18.05,34.51c.62.09,1.42.12,2.29.12,3.97,0,7.37-.96,9.64-3.12,1.78-1.67,2.74-4.15,2.74-7.05s-1.27-5.38-3.18-6.87c-1.98-1.6-4.93-2.38-9.07-2.38s-7.01.27-9.07.62v29.31h6.65v-10.62h0Zm.01-13.97c.47-.14,1.4-.27,2.76-.27,3.36,0,5.25,1.62,5.26,4.35,0,3.05-2.22,4.85-5.79,4.85-.96,0-1.66-.04-2.23-.17v-8.77h0Z"/>
      </g>
      <path class="cls-1" d="m60.77,60.77H0V0h60.77v60.77Zm-59.33-1.44h57.89V1.44H1.44v57.9Z"/>
    </g>
  </g>
</svg>