<?xml version="1.0" encoding="UTF-8"?>
<svg id="Layer_2" data-name="Layer 2" xmlns="http://www.w3.org/2000/svg" viewBox="0 0 61.51 61.51">
  <defs>
    <style>
      .cls-1 {
        fill: #908dff;
      }
    </style>
  </defs>
  <g id="Layer_1-2" data-name="Layer 1">
    <g>
      <g>
        <path class="cls-1" d="m32.07,21.7c-1.06-2.85-3.39-4.81-6.19-5.86-1.67-.63-3.71-.93-6.16-.93l-7.6.15c-.69.03-1.17.03-1.67.03-.21,0-.3.12-.3.33v30.78c0,.27.12.39.36.39h5.8c.21-.03.36-.21.33-.42v-9.6c.57,0,.99,0,1.29.03.3.03.78.03,1.5.03,4.32,0,8.89-.94,11.55-4.67,2.03-2.85,2.31-7.03,1.11-10.26Zm-6.76,7.15c-.66.75-1.5,1.32-2.45,1.58-1.11.36-2.27.54-3.44.54h-1.59c-.36,0-.75-.03-1.17-.06v-10.05c.21-.03.63-.06,1.23-.03.57-.03,1.26-.03,2.03-.03,1.23-.03,2.42.15,3.53.6.87.33,1.59.93,2.1,1.71.48.81.72,1.74.69,2.66,0,1.32-.3,2.33-.93,3.08Z"/>
        <path class="cls-1" d="m51.37,22.42v5.95c0,.24-.15.33-.48.33-1.08-.03-2.18.06-3.23.3-.87.18-1.7.45-2.51.81-.57.27-1.11.63-1.53,1.11v15.26c0,.3-.12.42-.39.42h-5.89c-.24.03-.45-.12-.48-.36v-16.7c0-.72,0-1.47-.03-2.24-.03-.78-.03-1.56-.06-2.33,0-.69-.06-1.35-.12-2.03-.03-.15.06-.3.21-.33,0-.03.06-.03.09,0h5.24c.3,0,.54.21.63.48.09.24.15.48.18.75.06.3.12.63.15.93.03.33.06.69.06,1.08.9-1.05,1.97-1.91,3.2-2.57,1.38-.78,2.96-1.17,4.55-1.17.21-.03.39.12.42.33Z"/>
      </g>
      <path class="cls-1" d="m61.51,61.51H0V0h61.51v61.51Zm-60.06-1.46h58.6V1.46H1.46v58.6Z"/>
    </g>
  </g>
</svg>