<svg width="0" height="0" class="hidden">
  <symbol xmlns="http://www.w3.org/2000/svg" viewBox="0 0 12 35" id="in-out-logo">
    <path style="fill-rule: evenodd" d="M3.36902 5.03552H4.4438V4.04443H3.36902V5.03552ZM9.88218 24.1472V4.04432V2.98577V2.9707H2.29395V3.10978V4.04432V24.1472H3.36882V6.10912H4.44359V24.1416H5.51847V4.04432H6.63018L7.69112 8.00741V4.04432H8.8073V24.1472H9.88218Z"/>
    <path style="fill-rule: evenodd" d="M1.07777 31.5595H2.18788V26.3512H1.07777V31.5595ZM11.9482 26.3407H11.9528V1.86456V0.904627V0.853027H1.07776H0V0.863513V1.86456V1.93599V26.3512V26.3514V31.5574L0.00866049 31.5597H0C0 32.1578 0.488744 32.6426 1.09164 32.6426H2.1741C2.76019 32.6426 3.23704 32.1839 3.26323 31.6089H3.26574V31.5599V31.5597V26.3514V26.3512V26.2526H3.26073C3.21033 25.7009 2.74329 25.2684 2.1741 25.2684H1.09164C1.08705 25.2684 1.08246 25.2691 1.07776 25.2691V1.93599H10.875V25.2684H8.72393V26.3409H9.7971V32.5908H10.875V26.3409H11.9482V26.3407Z"/>
    <path d="M6.53162 31.5597H5.42151V25.2593H4.34375V31.5597C4.34375 32.1578 4.83249 32.6426 5.43539 32.6426H6.51774C7.12074 32.6426 7.60949 32.1578 7.60949 31.5597V25.2593H6.53162V31.5597Z"/>
    <path d="M6.53125 24.1867H7.60912V11.1985L6.53125 7.33496V24.1867Z"/>
    <path d="M0 34.8919H0.130638V33.7402H0V34.8919Z"/>
    <path d="M1.69334 34.6632L0.964087 33.7402H0.841797V34.8919H0.969096V33.9475L1.71651 34.8919H1.82064V33.7402H1.69334V34.6632Z"/>
    <path d="M2.43701 33.8604H2.82559V34.8919H2.95789V33.8604H3.34647V33.7402H2.43701V33.8604Z"/>
    <path d="M4.09353 34.3704H4.72522V34.2519H4.09353V33.8588H4.79962V33.7402H3.96289V34.8919H4.80786V34.7735H4.09353V34.3704Z"/>
    <path d="M5.57344 34.3277V33.8604H5.9306C6.11748 33.8604 6.22663 33.9458 6.22663 34.0891C6.22663 34.2388 6.10256 34.3277 5.92894 34.3277H5.57344ZM6.3589 34.0841C6.3589 33.8769 6.19519 33.7402 5.94059 33.7402H5.44287V34.8919H5.57351V34.4444H5.90417L6.23985 34.8919H6.40033L6.04472 34.4213C6.2267 34.3885 6.3589 34.2766 6.3589 34.0841V34.0841Z"/>
    <path d="M7.02148 34.8919H7.15212V33.7402H7.02148V34.8919Z"/>
    <path d="M8.40394 34.7916C8.13943 34.7916 7.94754 34.5777 7.94754 34.3145C7.94754 34.0513 8.13609 33.8406 8.4006 33.8406C8.66521 33.8406 8.857 34.0545 8.857 34.3178C8.857 34.581 8.66845 34.7916 8.40394 34.7916M8.40395 33.7207C8.05179 33.7207 7.81201 33.9986 7.81201 34.3179C7.81201 34.637 8.04845 34.9118 8.40061 34.9118C8.75288 34.9118 8.99255 34.6337 8.99255 34.3146C8.99255 33.9954 8.75621 33.7207 8.40395 33.7207"/>
    <path d="M9.77121 34.3277V33.8604H10.1284C10.3153 33.8604 10.4244 33.9458 10.4244 34.0891C10.4244 34.2388 10.3003 34.3277 10.1267 34.3277H9.77121ZM10.5567 34.0841C10.5567 33.8769 10.3929 33.7402 10.1383 33.7402H9.64062V34.8919H9.77126V34.4444H10.1019L10.4376 34.8919H10.5981L10.2425 34.4213C10.4245 34.3885 10.5567 34.2766 10.5567 34.0841V34.0841Z"/>
    <path d="M11.623 34.2535C11.3683 34.1992 11.3088 34.1383 11.3088 34.0281C11.3088 33.9229 11.4047 33.8406 11.5552 33.8406C11.6742 33.8406 11.7817 33.8784 11.8892 33.9656L11.9652 33.8652C11.8478 33.7714 11.7271 33.7236 11.5585 33.7236C11.3385 33.7236 11.1782 33.8553 11.1782 34.0397C11.1782 34.2305 11.3006 34.316 11.5667 34.3736C11.8099 34.4246 11.8677 34.4855 11.8677 34.5941C11.8677 34.7109 11.7652 34.7915 11.6097 34.7915C11.4494 34.7915 11.3336 34.7372 11.2129 34.6286L11.1318 34.7241C11.2708 34.8474 11.4212 34.9082 11.6048 34.9082C11.8347 34.9082 12 34.78 12 34.581C12 34.4031 11.8809 34.3095 11.623 34.2535"/>
  </symbol>
  <symbol xmlns="http://www.w3.org/2000/svg" viewBox="0 0 9 19" id="facebook-icon">
    <path fill-rule="evenodd" clip-rule="evenodd" d="M5.986 4.252C5.986 3.443 6.07 3.009 7.314 3.009H8.978V0H6.316C3.119 0 1.992 1.506 1.992 4.037V5.992H0V9.002H1.992V18.004H5.982V9.002H8.644L8.997 5.992H5.982L5.986 4.252Z"></path>
  </symbol>
  <symbol xmlns="http://www.w3.org/2000/svg" viewBox="0 0 19 19" id="instagram-icon">
    <path fill-rule="evenodd" clip-rule="evenodd" d="M14.1004 3.77643C13.5634 3.77643 13.1294 4.21143 13.1294 4.74743C13.1294 5.28443 13.5634 5.71943 14.1004 5.71943C14.6364 5.71943 15.0714 5.28443 15.0714 4.74743C15.0714 4.21143 14.6364 3.77643 14.1004 3.77643"></path>
    <path fill-rule="evenodd" clip-rule="evenodd" d="M9.3449 11.958C7.9909 11.958 6.8899 10.857 6.8899 9.50301C6.8899 8.14901 7.9909 7.04801 9.3449 7.04801C10.6989 7.04801 11.7999 8.14901 11.7999 9.50301C11.7999 10.857 10.6989 11.958 9.3449 11.958M9.3449 5.41101C7.0889 5.41101 5.2529 7.24701 5.2529 9.50301C5.2529 11.759 7.0889 13.595 9.3449 13.595C11.6009 13.595 13.4369 11.759 13.4369 9.50301C13.4369 7.24701 11.6009 5.41101 9.3449 5.41101"></path>
    <path fill-rule="evenodd" clip-rule="evenodd" d="M16.7101 14.4131C16.7101 15.7671 15.6091 16.8681 14.2551 16.8681H4.43511C3.08111 16.8681 1.98011 15.7671 1.98011 14.4131V4.5931C1.98011 3.2391 3.08111 2.1381 4.43511 2.1381H14.2551C15.6091 2.1381 16.7101 3.2391 16.7101 4.5931V14.4131ZM14.2551 0.501099H4.43511C2.17911 0.501099 0.343109 2.3371 0.343109 4.5931V14.4131C0.343109 16.6691 2.17911 18.5051 4.43511 18.5051H14.2551C16.5111 18.5051 18.3471 16.6691 18.3471 14.4131V4.5931C18.3471 2.3371 16.5111 0.501099 14.2551 0.501099V0.501099Z"></path>
  </symbol>
  <symbol xmlns="http://www.w3.org/2000/svg" viewBox="0 0 17 16" id="linkedin-icon">
    <path fill-rule="evenodd" clip-rule="evenodd" d="M13.357 4.986C10.392 4.986 9.996 6.769 9.996 6.769L10 5H6V16H10V10C10 10 10 7.985 11.699 7.985C12.656 7.985 13 8.881 13 10V16H17V10C17 6.869 15.638 4.986 13.357 4.986ZM0 16H3.985V4.986H0V16ZM1.992 0C0.892 0 0 0.896 0 2.004C0 3.108 0.892 4.006 1.992 4.006C3.093 4.006 3.985 3.108 3.985 2.004C3.985 0.896 3.093 0 1.992 0Z"></path>
  </symbol>
  <symbol xmlns="http://www.w3.org/2000/svg" viewBox="0 0 29 23" id="next-arrow">
    <path d="M16.4016 0.36305L27.3618 11.3232M27.3618 11.3232L16.0481 22.6369M27.3618 11.3232L0.138184 11.6768"></path>
  </symbol>
  <symbol xmlns="http://www.w3.org/2000/svg" viewBox="0 0 29 23" id="prev-arrow">
    <path d="M12.0984 0.36305L1.13821 11.3232M1.13821 11.3232L12.4519 22.6369M1.13821 11.3232L28.3618 11.6768"></path>
  </symbol>
  <symbol xmlns="http://www.w3.org/2000/svg" viewBox="0 0 55 55" id="button-arrow">
    <circle r="27" transform="matrix(-1 0 0 1 27.5 27.5)"></circle>
    <path d="M19.9896 36.7531L35.8995 36.3996L36.2531 20.4896"></path>
    <path d="M35.8994 36.3995L16.454 16.9541"></path>
  </symbol>
  <symbol xmlns="http://www.w3.org/2000/svg" viewBox="0 0 60 39" id="tab-next-arrow">
    <circle r="19" transform="matrix(-1 0 0 1 40.5 19.5)"></circle>
    <path d="M35 31L46 19.5L35 8"></path>
    <path d="M46 19.5H0"></path>
  </symbol>
  <symbol xmlns="http://www.w3.org/2000/svg" viewBox="0 0 60 39" id="tab-prev-arrow">
    <circle cx="19.5" cy="19.5" r="19"></circle>
    <path d="M25 31L14 19.5L25 8"></path>
    <path d="M14 19.5H60"></path>
  </symbol>
  <symbol xmlns="http://www.w3.org/2000/svg" viewBox="0 0 90 90" id="values-icon">
    <path fill-rule="evenodd" clip-rule="evenodd" d="M9 66.8807H18.533V38.3927H9V66.8807Z" stroke-linecap="round" stroke-linejoin="round"></path>
    <path d="M18.5327 43.3811H32.4997C35.2707 43.3811 41.8107 45.4871 44.2497 49.0341H54.8907C57.3847 49.0341 58.3827 51.1401 58.3827 52.6371C58.3827 54.1331 57.3017 56.8771 54.9737 56.8771H35.4367" stroke-linecap="round" stroke-linejoin="round"></path>
    <path d="M57.6452 55.1573C57.6452 55.1573 67.8592 51.5563 70.8522 50.4753C73.8452 49.3943 79.8312 50.0593 81.9922 54.2163C81.9922 54.2163 56.9692 66.2713 54.5582 67.4353C52.1472 68.5993 46.7432 71.3423 40.0922 69.5133C33.4412 67.6843 18.5322 62.1143 18.5322 62.1143" stroke-linecap="round" stroke-linejoin="round"></path>
    <path d="M13.1567 38.393V10.155C13.1567 10.155 26.2917 5 43.9997 5C61.7077 5 78.0027 11.402 78.0027 11.402V35.844C78.0027 43.991 74.6777 50.052 74.6777 50.052" stroke-linecap="round" stroke-linejoin="round"></path>
    <path d="M70.336 59.8322C70.336 59.8322 57.468 78.8242 45.58 85.1432C45.58 85.1432 29.351 73.4672 23.125 63.8002" stroke-linecap="round" stroke-linejoin="round"></path>
    <path fill-rule="evenodd" clip-rule="evenodd" d="M43.6674 21.9599H32.8594L41.5054 28.1119L38.2634 37.8389L46.7304 31.5209L54.2254 37.5059L51.2324 28.2779L59.7124 22.3759H49.8194L46.2864 11.9839L43.6674 21.9599Z" stroke-linecap="round" stroke-linejoin="round"></path>
    <path d="M56.0698 24.9113H78.0018" stroke-linecap="round" stroke-linejoin="round"></path>
    <path d="M37.6712 25.3833H13.1572" stroke-linecap="round" stroke-linejoin="round"></path>
  </symbol>
  <symbol xmlns="http://www.w3.org/2000/svg" viewBox="0 0 90 90" id="mission-icon">
    <path fill-rule="evenodd" clip-rule="evenodd" d="M2 81.4917H87.463L67.4 48.9027L62.301 57.3267L77.149 81.5977L45.341 29.8367L27.827 57.4377L42.346 81.4917L21.952 47.9047L2 81.4917Z" stroke-linecap="round" stroke-linejoin="round"></path>
    <path d="M45.3413 29.837V8H67.6213L60.0843 15.649L67.6213 23.297H46.4493" stroke-linecap="round" stroke-linejoin="round"></path>
  </symbol>
  <symbol xmlns="http://www.w3.org/2000/svg" viewBox="0 0 90 90" id="vision-icon">
    <path fill-rule="evenodd" clip-rule="evenodd" d="M56.7179 83.5538L54.2348 88.2H37.4124L34.6095 83.3139L29.3505 78.6677V65.4769C18.4433 59.768 11 48.3414 11 35.1776C11 16.3019 26.301 1 45.1766 1C64.0523 1 79.3532 16.3019 79.3532 35.1776C79.3532 47.7893 72.5218 58.8054 62.3574 64.7283V78.9077L56.7179 83.5538Z" stroke-linecap="round" stroke-linejoin="round"></path>
    <path d="M29.3506 78.6673H62.3575" stroke-linecap="round" stroke-linejoin="round"></path>
    <path d="M29.3506 73.7811H62.3575" stroke-linecap="round" stroke-linejoin="round"></path>
    <path d="M29.3506 65.4504H45.5033H62.3575" stroke-linecap="round" stroke-linejoin="round"></path>
    <path d="M36.4517 31.6465L45.5368 40.7317L54.1875 32.0801" stroke-linecap="round" stroke-linejoin="round"></path>
    <path d="M45.5033 65.4504V40.7318" stroke-linecap="round" stroke-linejoin="round"></path>
  </symbol>
  <symbol xmlns="http://www.w3.org/2000/svg" viewBox="0 0 25 13" id="next-arrow-new">
    <path d="M24.3506 6.46745C21.2765 7.60673 18.8752 9.45336 17.1469 12.0073H15.8321C16.4246 10.2171 17.4185 8.52686 18.8136 6.93688H0.350586V5.09651H18.8136C17.4185 3.50653 16.4246 1.81014 15.8321 0.00732422L17.1469 0.00732422C18.8752 2.56131 21.2765 4.408 24.3506 5.54726V6.46745Z"></path>
  </symbol>
  <symbol xmlns="http://www.w3.org/2000/svg" viewBox="0 0 25 13" id="prev-arrow-new">
    <path d="M0.649353 5.71689C3.68518 4.60741 6.05655 2.80909 7.76341 0.32193H9.06186C8.47666 2.06537 7.4952 3.71135 6.11748 5.25974L24.3507 5.25974V7.05197L6.11748 7.05197C7.4952 8.60035 8.47666 10.2524 9.06186 12.008H7.76341C6.05655 9.52085 3.68518 7.72247 0.649353 6.61301V5.71689Z"></path>
  </symbol>
</svg>